<svg t="1705736551291" class="icon" viewBox="0 0 1024 1024" version="1.1" xmlns="http://www.w3.org/2000/svg" p-id="38015" width="24" height="24"><path d="M883.170163 415.669664l-307.916084-307.916084c-35.122211-35.122211-92.067932-35.122211-127.190143 0L140.147852 415.669664C83.543124 472.615385 123.78022 569.457209 203.91342 569.457209h7.160839v260.518149c0 82.179154 66.834499 149.013653 149.013653 149.013653h50.466867c-1.363969-6.478854-2.045954-13.298701-2.045954-20.45954v-255.744256c0-57.286713 46.374958-103.320679 103.320679-103.32068 57.286713 0 103.320679 46.374958 103.320679 103.32068v255.744256c0 7.160839-0.681985 13.980686-2.045954 20.45954h50.466867c82.179154 0 149.013653-66.834499 149.013653-149.013653v-254.721279-5.79687h7.160839c80.1332 0 120.370296-96.841825 63.424575-153.787545z" p-id="38016" fill="#8a8a8a"></path></svg>