<svg t="1705736614555" class="icon" viewBox="0 0 1024 1024" version="1.1" xmlns="http://www.w3.org/2000/svg" p-id="40230" width="24" height="24"><path d="M772.245854 83.918049v860.16H80.920976V83.918049h691.324878m19.980487-79.921951H60.940488C27.87278 3.996098 0.999024 30.869854 0.999024 63.937561v900.120976c0 33.067707 26.873756 59.941463 59.941464 59.941463h731.285853c33.067707 0 59.941463-26.873756 59.941464-59.941463V63.937561c0-33.067707-26.873756-59.941463-59.941464-59.941463z" fill="" p-id="40231"></path><path d="M943.079024 221.783415v722.294634h-90.911219V221.783415h90.911219m19.980488-79.921952H832.187317c-33.067707 0-59.941463 26.873756-59.941463 59.941464v822.197073h190.813658c33.067707 0 59.941463-26.873756 59.941464-59.941463V201.802927c0-33.067707-26.873756-59.941463-59.941464-59.941464zM357.650732 223.781463v136.866342H220.78439V223.781463h136.866342m19.980488-79.921951H200.803902c-33.067707 0-59.941463 26.873756-59.941463 59.941464v176.827317c0 33.067707 26.873756 59.941463 59.941463 59.941463h176.827318c33.067707 0 59.941463-26.873756 59.941463-59.941463V203.800976c0-33.067707-26.873756-59.941463-59.941463-59.941464zM612.401951 222.782439h-98.903414c-22.078439 0-39.960976-17.882537-39.960976-39.960976s17.882537-39.960976 39.960976-39.960975h98.903414c22.078439 0 39.960976 17.882537 39.960976 39.960975s-17.882537 39.960976-39.960976 39.960976zM672.343415 439.570732H513.498537c-22.078439 0-39.960976-17.882537-39.960976-39.960976s17.882537-39.960976 39.960976-39.960976h158.844878c22.078439 0 39.960976 17.882537 39.960975 39.960976s-17.882537 39.960976-39.960975 39.960976zM542.470244 331.176585h-28.971707c-22.078439 0-39.960976-17.882537-39.960976-39.960975s17.882537-39.960976 39.960976-39.960976h28.971707c22.078439 0 39.960976 17.882537 39.960976 39.960976s-17.882537 39.960976-39.960976 39.960975zM208.296585 689.326829c-37.163707 0-67.434146-30.270439-67.434146-67.434146s30.270439-67.434146 67.434146-67.434146 67.434146 30.270439 67.434147 67.434146-30.270439 67.434146-67.434147 67.434146z m0-79.921951c-6.893268 0-12.487805 5.594537-12.487805 12.487805s5.594537 12.487805 12.487805 12.487805 12.487805-5.594537 12.487805-12.487805-5.594537-12.487805-12.487805-12.487805zM208.296585 884.136585c-37.163707 0-67.434146-30.270439-67.434146-67.434146s30.270439-67.434146 67.434146-67.434146 67.434146 30.270439 67.434147 67.434146-30.270439 67.434146-67.434147 67.434146z m0-79.921951c-6.893268 0-12.487805 5.594537-12.487805 12.487805s5.594537 12.487805 12.487805 12.487805 12.487805-5.594537 12.487805-12.487805-5.594537-12.487805-12.487805-12.487805zM671.34439 661.354146H386.622439c-22.078439 0-39.960976-17.882537-39.960976-39.960975s17.882537-39.960976 39.960976-39.960976h284.721951c22.078439 0 39.960976 17.882537 39.960976 39.960976s-17.882537 39.960976-39.960976 39.960975zM671.34439 859.160976H386.622439c-22.078439 0-39.960976-17.882537-39.960976-39.960976s17.882537-39.960976 39.960976-39.960976h284.721951c22.078439 0 39.960976 17.882537 39.960976 39.960976s-17.882537 39.960976-39.960976 39.960976z" fill="" p-id="40232"></path></svg>