<svg t="1705736717579" class="icon" viewBox="0 0 1024 1024" version="1.1" xmlns="http://www.w3.org/2000/svg" p-id="42791" width="24" height="24"><path d="M300.8 602.496l-90.453333 90.538667 120.661333 120.661333L813.696 330.965333 693.034667 210.346667 602.453333 300.8l60.373334 60.330667L602.453333 421.546667l-60.330666-60.373334-60.330667 60.373334 60.330667 60.330666-60.330667 60.330667-60.330667-60.330667-60.373333 60.330667 60.373333 60.330667-60.373333 60.373333L300.8 602.453333v0.042667z m422.4-482.688l180.992 180.992a42.666667 42.666667 0 0 1 0 60.330667L361.130667 904.192a42.666667 42.666667 0 0 1-60.330667 0L119.808 723.2a42.666667 42.666667 0 0 1 0-60.330667L662.869333 119.808a42.666667 42.666667 0 0 1 60.330667 0z m-120.746667 663.68l60.373334-60.330667 95.658666 95.701334h60.330667v-60.330667l-95.658667-95.701333 60.330667-60.330667L896 714.965333V896h-180.992l-112.512-112.512h-0.042667zM240.469333 421.461333L119.765333 300.8a42.666667 42.666667 0 0 1 0-60.373333l120.704-120.661334a42.666667 42.666667 0 0 1 60.330667 0l120.746667 120.661334L361.130667 300.8 270.634667 210.261333 210.304 270.634667l90.496 90.453333-60.330667 60.373333z" fill="#09121F" p-id="42792"></path></svg>