<?xml version="1.0" standalone="no"?><!DOCTYPE svg PUBLIC "-//W3C//DTD SVG 1.1//EN" "http://www.w3.org/Graphics/SVG/1.1/DTD/svg11.dtd"><svg t="1705594579139" class="icon" viewBox="0 0 1024 1024" version="1.1" xmlns="http://www.w3.org/2000/svg" p-id="17245" xmlns:xlink="http://www.w3.org/1999/xlink" width="16" height="16"><path d="M315.28448 708.67456l-3.36384-3.3792 6.92736-22.1696c-1.1776 8.23296-2.304 16.31232-3.36896 24.24832l-0.19456 1.30048z m-32.256 55.53664l1.1776 20.0704c0 21.248-1.61792 53.11488-4.84864 95.61088-3.23584 42.496-4.85376 74.36288-4.85376 95.61088 0 11.0848 0.4608 22.6304 1.38752 34.64192 3.69664-19.4048 6.92736-58.19904 9.69728-116.39808 1.84832-49.88416 6.46656-85.44768 13.85984-106.69568-2.76992-3.69152-4.15744-7.38816-4.15744-11.0848s1.8432-14.78144 5.53984-33.2544l2.77504 9.69728 4.15744-11.0848-5.54496-8.31488 1.3824-5.53984 2.77504-1.3824 1.3824-1.38752-4.15232-1.38752 4.15744-4.15744c0-2.76992 0.9216-5.07904 2.7648-6.92736l4.59776-2.29376-1.20832 9.22624c-9.1392 70.04672-13.94688 128.04096-14.42816 173.97248l-0.04096 7.54176c0 13.85984 0.4608 34.18112 1.3824 60.96896V1024c6.00576-21.44256 12.01152-67.584 18.01728-138.40896l1.3824-16.78336c6.46656-68.36224 16.62976-116.85888 30.48448-145.49504l-4.15744-2.76992c12.01152-75.7504 19.4048-132.56192 22.1696-170.43968 12.01152-76.672 22.1696-149.64736 30.4896-218.9312 7.38816-63.744 15.70304-110.848 24.93952-141.3376 130.2528 55.42912 195.3792 107.6224 195.3792 156.57984 0 39.72096-11.55072 73.90208-34.64192 102.53824-14.78144 17.55136-40.64768 39.26016-77.59872 65.1264-39.72096 27.71456-67.4304 50.34496-83.13856 67.89632 0 3.69664-0.4608 8.77568-1.3824 15.24224 24.0128-11.0848 42.03008-19.86048 54.03648-26.32704h1.3824c1.85344-2.76992 4.62336-5.07904 8.32-6.92736 4.61824 0.9216 8.77568 0 12.4672-2.76992l9.7024-8.31488 6.92736-1.3824c-5.54496 5.53984-12.93312 11.54048-22.1696 18.00704l15.24224 1.38752-15.24224 12.47232c45.2608-21.248 79.90784-36.02944 103.92576-44.3392 8.30976-2.77504 24.4736-6.00576 48.49664-9.7024 17.55136-1.8432 35.56352-8.31488 54.0416-19.39968l45.7216-33.2544c24.94464-17.55136 40.18688-26.79296 45.73184-27.71456 21.248-33.2544 31.86688-61.42976 31.86688-84.52608 0-19.39968-6.92736-45.7216-20.7872-78.98112-26.78784-62.81728-56.576-112.00512-89.3696-147.57376-32.7936-35.56352-80.13824-70.89664-142.0288-105.99936-28.64128-15.70816-53.5808-23.55712-74.8288-23.55712-5.53984 0-13.1584 1.8432-22.8608 5.53984-9.7024 3.69664-16.86016 6.00576-21.4784 6.93248C440.7808 6.92736 428.3136 0 414.45888 0L396.4416 4.15744 389.51424 0l-1.3824 6.92736c-7.39328-0.9216-12.93312-2.76992-16.62976-5.53984l-2.76992 1.3824-2.77504 1.3824v2.77504L359.02976 4.15744h-4.15744c3.69664 0 0.9216 0.9216-8.31488 2.76992-11.0848-2.76992-26.09664-0.9216-45.0304 5.54496-18.93888 6.46656-30.2592 14.31552-33.9456 23.552-7.39328 24.02304-11.08992 41.1136-11.08992 51.27168-14.78144 37.87264-24.47872 91.45344-29.09696 160.73728a9698.07872 9698.07872 0 0 0-9.7024 163.5072C205.68576 515.92704 199.68 589.3632 199.68 631.8592v249.41568c0 9.2416 0.4608 22.6304 1.3824 40.18688 0.92672 17.55136 1.38752 30.94528 1.38752 40.18176 11.0848 3.69664 16.62976 15.24224 16.62976 34.64192 0-109.9264 6.46656-188.90752 19.39968-236.94336 0 22.1696-1.84832 54.9632-5.54496 98.3808-3.69152 43.4176-5.53984 76.2112-5.53984 98.3808l4.15744 5.53984v41.5744c0.9216-32.3328 1.3824-48.96256 1.3824-49.88416l2.77504-2.77504c0.9216 0 1.8432 0.4608 2.7648 1.3824 1.85344-95.14496 10.62912-175.9744 26.33216-242.4832l4.15744 1.3824c0 3.69664-1.15712 9.472-3.46624 17.32096-2.304 7.85408-3.46112 13.62432-3.46112 17.32096v13.85984l2.7648 2.7648c-4.61312 5.54496-6.92224 11.55072-6.92224 18.0224l0.0768-1.4592c0.1792 0.7168 0.55296 6.144 1.1264 16.2816l0.17408 3.072 0.00512-1.26976c0.7936-1.5872 1.92512-1.47456 3.39456 0.33792l0.768 1.04448-4.16256 152.4224c1.84832-12.0064 4.61824-43.8784 8.31488-95.61088 2.76992-38.79424 7.85408-70.20544 15.24224-94.22336l-0.01024 0.03584 0.21504 3.45088z" fill="#061161" p-id="17246"></path></svg>